<svg width="45" height="41" viewBox="0 0 45 41" fill="none" xmlns="http://www.w3.org/2000/svg">
<path d="M15.7395 9.39793C15.9396 9.38345 16.1258 9.29897 16.259 9.16219C16.3923 9.02542 16.4623 8.84696 16.4543 8.66422C16.4463 8.48147 16.3611 8.30862 16.2163 8.18189C16.0716 8.05516 15.8787 7.98438 15.678 7.98438C15.4772 7.98438 15.2843 8.05516 15.1396 8.18189C14.9948 8.30862 14.9096 8.48147 14.9016 8.66422C14.8937 8.84696 14.9636 9.02542 15.0969 9.16219C15.2301 9.29897 15.4163 9.38345 15.6164 9.39793H15.7395Z" fill="#EFFAFE"/>
<path d="M12.9867 11.4512H13.3594V11.2558C13.3594 10.5832 13.7285 9.95537 14.5511 9.56458C14.3268 9.32123 14.2025 9.01431 14.1996 8.69654C14.1996 8.3391 14.3554 7.99631 14.6328 7.74356C14.9102 7.49081 15.2865 7.34882 15.6788 7.34882C16.0711 7.34882 16.4473 7.49081 16.7247 7.74356C17.0021 7.99631 17.158 8.3391 17.158 8.69654C17.1546 9.01424 17.0303 9.32103 16.8064 9.56458C17.6308 9.95697 17.9982 10.588 17.9982 11.2558V11.4512H18.3674V6.54724H12.9867V11.4512Z" fill="#40BDFF"/>
<path d="M32.0133 35.3945V28.7496L31.9096 28.7657C31.2998 28.8623 30.7472 29.1523 30.3493 29.5843C29.9514 30.0162 29.7339 30.5624 29.7352 31.1264V32.9922C29.7352 33.0771 29.6981 33.1586 29.6322 33.2187C29.5663 33.2787 29.4768 33.3125 29.3836 33.3125H23.9344V35.3945C23.9344 36.3715 24.3603 37.3084 25.1185 37.9992C25.8767 38.69 26.9051 39.0781 27.9774 39.0781C29.0496 39.0781 30.078 38.69 30.8362 37.9992C31.5944 37.3084 32.0203 36.3715 32.0203 35.3945H32.0133Z" fill="#2177C6"/>
<path d="M31.9096 28.7657C31.6388 28.8095 31.3773 28.8916 31.1344 29.0091V35.3945C31.1342 36.302 30.7664 37.1776 30.1014 37.8532C29.4364 38.5288 28.521 38.957 27.5309 39.0557C28.0955 39.1119 28.6667 39.0592 29.2074 38.9008C29.7481 38.7425 30.2462 38.4821 30.6691 38.1367C31.092 37.7913 31.4302 37.3686 31.6618 36.8961C31.8935 36.4236 32.0132 35.912 32.0133 35.3945V28.7496L31.9096 28.7657Z" fill="white"/>
<path d="M15.9609 10.0386C15.416 10.0386 15.4213 10.0386 15.3949 10.0386C15.0407 10.039 14.7012 10.1674 14.4508 10.3955C14.2003 10.6237 14.0594 10.9331 14.059 11.2558V11.4512H17.2986V11.2558C17.2981 10.9328 17.157 10.6232 16.9062 10.395C16.6554 10.1668 16.3154 10.0386 15.9609 10.0386Z" fill="#EFFAFE"/>
<path d="M15.6779 7.99025C15.5554 7.99095 15.4348 8.01841 15.3264 8.07033C15.4536 8.12857 15.5606 8.2179 15.6354 8.32834C15.7101 8.43878 15.7497 8.56598 15.7497 8.69574C15.7497 8.82549 15.7101 8.95269 15.6354 9.06313C15.5606 9.17357 15.4536 9.2629 15.3264 9.32115C15.4172 9.36386 15.5163 9.38998 15.6182 9.39802H15.7412C15.9429 9.38615 16.1315 9.30281 16.2666 9.16584C16.4017 9.02887 16.4726 8.84916 16.4641 8.66516C16.4556 8.48117 16.3684 8.30752 16.2211 8.18138C16.0738 8.05524 15.8782 7.98663 15.6762 7.99025H15.6779Z" fill="#E4EBED"/>
<path d="M17.6678 6.54724V10.242C17.8887 10.5422 18.0051 10.8961 18.0018 11.2574V11.4512H18.3709V6.54724H17.6678Z" fill="#2197F7"/>
<path d="M15.9609 10.0386C15.416 10.0386 15.4213 10.0386 15.3949 10.0386H15.3264C15.6679 10.055 15.9896 10.1899 16.2253 10.4157C16.461 10.6415 16.5929 10.9409 16.5937 11.2526V11.4512H17.2969V11.2558C17.2964 10.9331 17.1555 10.6237 16.9051 10.3955C16.6546 10.1674 16.3151 10.039 15.9609 10.0386Z" fill="#E4EBED"/>
<path d="M32.778 2.37512V3.94145H34.4971L32.778 2.37512Z" fill="#EFFAFE"/>
<path d="M11.9918 32.6719H29.0321V31.1264C29.0321 30.3193 29.3839 29.5453 30.0103 28.9747C30.6366 28.404 31.4861 28.0834 32.3719 28.0834C32.4651 28.0834 32.5546 28.1171 32.6205 28.1772C32.6864 28.2373 32.7235 28.3188 32.7235 28.4037V32.6719H33.8942C34.188 32.6715 34.4697 32.5648 34.6773 32.3753C34.885 32.1858 35.0016 31.929 35.0016 31.6613V4.58207H32.4264C32.3332 4.58207 32.2437 4.54832 32.1778 4.48825C32.1119 4.42818 32.0748 4.34671 32.0748 4.26176V1.92188H11.9918C11.698 1.9223 11.4163 2.02896 11.2086 2.21843C11.001 2.40791 10.8844 2.66471 10.8844 2.93246V31.6613C10.8844 31.929 11.001 32.1858 11.2086 32.3753C11.4163 32.5648 11.698 32.6715 11.9918 32.6719ZM19.074 11.7715C19.074 11.8564 19.037 11.9379 18.9711 11.998C18.9051 12.0581 18.8157 12.0918 18.7225 12.0918H12.6352C12.5419 12.0918 12.4525 12.0581 12.3866 11.998C12.3207 11.9379 12.2836 11.8564 12.2836 11.7715V6.22688C12.2836 6.14192 12.3207 6.06045 12.3866 6.00038C12.4525 5.94031 12.5419 5.90656 12.6352 5.90656H18.7225C18.8157 5.90656 18.9051 5.94031 18.9711 6.00038C19.037 6.06045 19.074 6.14192 19.074 6.22688V11.7715ZM32.3649 9.31949H21.1149C21.0216 9.31949 20.9322 9.28575 20.8663 9.22567C20.8003 9.1656 20.7633 9.08413 20.7633 8.99918C20.7633 8.91423 20.8003 8.83276 20.8663 8.77268C20.9322 8.71261 21.0216 8.67887 21.1149 8.67887H32.3649C32.4581 8.67887 32.5475 8.71261 32.6135 8.77268C32.6794 8.83276 32.7164 8.91423 32.7164 8.99918C32.7164 9.08413 32.6794 9.1656 32.6135 9.22567C32.5475 9.28575 32.4581 9.31949 32.3649 9.31949ZM21.1149 11.4512H32.3649C32.4581 11.4512 32.5475 11.4849 32.6135 11.545C32.6794 11.6051 32.7164 11.6865 32.7164 11.7715C32.7164 11.8564 32.6794 11.9379 32.6135 11.998C32.5475 12.0581 32.4581 12.0918 32.3649 12.0918H21.1149C21.0216 12.0918 20.9322 12.0581 20.8663 11.998C20.8003 11.9379 20.7633 11.8564 20.7633 11.7715C20.7633 11.6865 20.8003 11.6051 20.8663 11.545C20.9322 11.4849 21.0216 11.4512 21.1149 11.4512ZM32.3649 6.54559H21.7653C21.672 6.54559 21.5826 6.51184 21.5167 6.45177C21.4507 6.3917 21.4137 6.31023 21.4137 6.22527C21.4137 6.14032 21.4507 6.05885 21.5167 5.99878C21.5826 5.93871 21.672 5.90496 21.7653 5.90496H32.3649C32.4581 5.90496 32.5475 5.93871 32.6135 5.99878C32.6794 6.05885 32.7164 6.14032 32.7164 6.22527C32.7164 6.31023 32.6794 6.3917 32.6135 6.45177C32.5475 6.51184 32.4581 6.54559 32.3649 6.54559ZM12.6352 14.2251H32.3649C32.4581 14.2251 32.5475 14.2588 32.6135 14.3189C32.6794 14.379 32.7164 14.4604 32.7164 14.5454C32.7164 14.6303 32.6794 14.7118 32.6135 14.7719C32.5475 14.832 32.4581 14.8657 32.3649 14.8657H12.6352C12.5419 14.8657 12.4525 14.832 12.3866 14.7719C12.3207 14.7118 12.2836 14.6303 12.2836 14.5454C12.2836 14.4604 12.3207 14.379 12.3866 14.3189C12.4525 14.2588 12.5419 14.2251 12.6352 14.2251ZM12.6352 16.9974H32.3649C32.4581 16.9974 32.5475 17.0311 32.6135 17.0912C32.6794 17.1513 32.7164 17.2327 32.7164 17.3177C32.7164 17.4026 32.6794 17.4841 32.6135 17.5442C32.5475 17.6043 32.4581 17.638 32.3649 17.638H12.6352C12.5419 17.638 12.4525 17.6043 12.3866 17.5442C12.3207 17.4841 12.2836 17.4026 12.2836 17.3177C12.2836 17.2327 12.3207 17.1513 12.3866 17.0912C12.4525 17.0311 12.5419 16.9974 12.6352 16.9974ZM12.6352 19.7697H32.3649C32.4581 19.7697 32.5475 19.8034 32.6135 19.8635C32.6794 19.9236 32.7164 20.005 32.7164 20.09C32.7164 20.175 32.6794 20.2564 32.6135 20.3165C32.5475 20.3766 32.4581 20.4103 32.3649 20.4103H12.6352C12.5419 20.4103 12.4525 20.3766 12.3866 20.3165C12.3207 20.2564 12.2836 20.175 12.2836 20.09C12.2836 20.005 12.3207 19.9236 12.3866 19.8635C12.4525 19.8034 12.5419 19.7697 12.6352 19.7697ZM12.6352 22.542H32.3649C32.4581 22.542 32.5475 22.5757 32.6135 22.6358C32.6794 22.6959 32.7164 22.7774 32.7164 22.8623C32.7164 22.9473 32.6794 23.0287 32.6135 23.0888C32.5475 23.1489 32.4581 23.1826 32.3649 23.1826H12.6352C12.5419 23.1826 12.4525 23.1489 12.3866 23.0888C12.3207 23.0287 12.2836 22.9473 12.2836 22.8623C12.2836 22.7774 12.3207 22.6959 12.3866 22.6358C12.4525 22.5757 12.5419 22.542 12.6352 22.542ZM12.6352 25.3143H32.3649C32.4581 25.3143 32.5475 25.348 32.6135 25.4081C32.6794 25.4682 32.7164 25.5497 32.7164 25.6346C32.7164 25.7196 32.6794 25.801 32.6135 25.8611C32.5475 25.9212 32.4581 25.9549 32.3649 25.9549H12.6352C12.5419 25.9549 12.4525 25.9212 12.3866 25.8611C12.3207 25.801 12.2836 25.7196 12.2836 25.6346C12.2836 25.5497 12.3207 25.4682 12.3866 25.4081C12.4525 25.348 12.5419 25.3143 12.6352 25.3143ZM12.6352 28.0866H24.7641C24.8573 28.0866 24.9467 28.1203 25.0127 28.1804C25.0786 28.2405 25.1156 28.322 25.1156 28.4069C25.1156 28.4919 25.0786 28.5733 25.0127 28.6334C24.9467 28.6935 24.8573 28.7272 24.7641 28.7272H12.6352C12.5419 28.7272 12.4525 28.6935 12.3866 28.6334C12.3207 28.5733 12.2836 28.4919 12.2836 28.4069C12.2836 28.322 12.3207 28.2405 12.3866 28.1804C12.4525 28.1203 12.5419 28.0866 12.6352 28.0866Z" fill="#EFFAFE"/>
<path d="M34.1156 4.58203V31.6613C34.1156 31.929 33.999 32.1858 33.7914 32.3753C33.5837 32.5648 33.302 32.6714 33.0082 32.6718H33.8871C34.181 32.6714 34.4626 32.5648 34.6703 32.3753C34.8779 32.1858 34.9945 31.929 34.9945 31.6613V4.58203H34.1156Z" fill="#E4EBED"/>
<path d="M11.1129 33.3925H23.1364V35.3945C23.1364 36.5626 23.6456 37.6828 24.5522 38.5088C25.4587 39.3348 26.6883 39.7988 27.9703 39.7988C29.2524 39.7988 30.4819 39.3348 31.3885 38.5088C32.295 37.6828 32.8043 36.5626 32.8043 35.3945V33.3925H33.8871C34.3906 33.3917 34.8732 33.209 35.2291 32.8844C35.585 32.5599 35.7851 32.12 35.7856 31.6612V4.26171C35.7831 4.15595 35.7373 4.05486 35.6572 3.97824L32.7375 1.31804H32.7287C32.6469 1.24751 32.539 1.20751 32.4264 1.20593H11.1129C10.6094 1.20678 10.1268 1.38951 9.77092 1.71405C9.41505 2.03859 9.21494 2.47846 9.21448 2.93722V31.6612C9.21494 32.12 9.41505 32.5599 9.77092 32.8844C10.1268 33.209 10.6094 33.3917 11.1129 33.3925ZM31.9254 32.9921V35.3945C31.9254 36.3502 31.5087 37.2668 30.767 37.9426C30.0253 38.6183 29.0193 38.998 27.9703 38.998C26.9214 38.998 25.9154 38.6183 25.1737 37.9426C24.432 37.2668 24.0153 36.3502 24.0153 35.3945V33.3925H29.3836C29.5002 33.3925 29.6119 33.3503 29.6944 33.2753C29.7768 33.2002 29.8231 33.0983 29.8231 32.9921V31.1263C29.8241 30.5809 30.0362 30.0532 30.422 29.6361C30.8078 29.219 31.3426 28.9391 31.9324 28.8457L31.9254 32.9921ZM32.8711 2.56246L34.2774 3.86132H32.8711V2.56246ZM10.0934 2.93242C10.0934 2.68591 10.2007 2.44947 10.3919 2.27501C10.583 2.10056 10.8424 2.00233 11.1129 2.00191H31.9922V4.26171C31.9922 4.3679 32.0385 4.46974 32.1209 4.54483C32.2033 4.61992 32.3151 4.6621 32.4317 4.6621H34.9119V31.6612C34.9119 31.9078 34.8046 32.1442 34.6134 32.3186C34.4223 32.4931 34.163 32.5913 33.8924 32.5918H32.8096V28.4101C32.8096 28.3039 32.7633 28.202 32.6809 28.127C32.5985 28.0519 32.4867 28.0097 32.3701 28.0097C31.4632 28.0105 30.5937 28.3392 29.9524 28.9235C29.3111 29.5078 28.9504 30.3 28.9494 31.1263V32.5918H11.1129C10.8424 32.5913 10.583 32.4931 10.3919 32.3186C10.2007 32.1442 10.0934 31.9078 10.0934 31.6612V2.93242Z" fill="#263238"/>
<path d="M21.7653 6.62732H32.3649C32.4814 6.62732 32.5932 6.58514 32.6756 6.51005C32.758 6.43496 32.8043 6.33312 32.8043 6.22693C32.8043 6.12074 32.758 6.0189 32.6756 5.94381C32.5932 5.86872 32.4814 5.82654 32.3649 5.82654H21.7653C21.6487 5.82654 21.5369 5.86872 21.4545 5.94381C21.3721 6.0189 21.3258 6.12074 21.3258 6.22693C21.3258 6.33312 21.3721 6.43496 21.4545 6.51005C21.5369 6.58514 21.6487 6.62732 21.7653 6.62732Z" fill="#263238"/>
<path d="M21.1219 9.39954H32.3719C32.4884 9.39954 32.6002 9.35735 32.6826 9.28226C32.765 9.20718 32.8113 9.10534 32.8113 8.99915C32.8113 8.89296 32.765 8.79111 32.6826 8.71603C32.6002 8.64094 32.4884 8.59875 32.3719 8.59875H21.1219C21.0053 8.59875 20.8936 8.64094 20.8111 8.71603C20.7287 8.79111 20.6824 8.89296 20.6824 8.99915C20.6824 9.10534 20.7287 9.20718 20.8111 9.28226C20.8936 9.35735 21.0053 9.39954 21.1219 9.39954Z" fill="#263238"/>
<path d="M21.1219 12.1719H32.3719C32.4884 12.1719 32.6002 12.1297 32.6826 12.0546C32.765 11.9795 32.8113 11.8777 32.8113 11.7715C32.8113 11.6653 32.765 11.5635 32.6826 11.4884C32.6002 11.4133 32.4884 11.3711 32.3719 11.3711H21.1219C21.0053 11.3711 20.8936 11.4133 20.8111 11.4884C20.7287 11.5635 20.6824 11.6653 20.6824 11.7715C20.6824 11.8777 20.7287 11.9795 20.8111 12.0546C20.8936 12.1297 21.0053 12.1719 21.1219 12.1719Z" fill="#263238"/>
<path d="M12.6351 14.9458H32.3648C32.4814 14.9458 32.5931 14.9036 32.6756 14.8285C32.758 14.7534 32.8043 14.6516 32.8043 14.5454C32.8043 14.4392 32.758 14.3374 32.6756 14.2623C32.5931 14.1872 32.4814 14.145 32.3648 14.145H12.6351C12.5186 14.145 12.4068 14.1872 12.3244 14.2623C12.242 14.3374 12.1957 14.4392 12.1957 14.5454C12.1957 14.6516 12.242 14.7534 12.3244 14.8285C12.4068 14.9036 12.5186 14.9458 12.6351 14.9458Z" fill="#263238"/>
<path d="M12.6351 17.7181H32.3648C32.4814 17.7181 32.5931 17.676 32.6756 17.6009C32.758 17.5258 32.8043 17.4239 32.8043 17.3177C32.8043 17.2116 32.758 17.1097 32.6756 17.0346C32.5931 16.9595 32.4814 16.9174 32.3648 16.9174H12.6351C12.5186 16.9174 12.4068 16.9595 12.3244 17.0346C12.242 17.1097 12.1957 17.2116 12.1957 17.3177C12.1957 17.4239 12.242 17.5258 12.3244 17.6009C12.4068 17.676 12.5186 17.7181 12.6351 17.7181Z" fill="#263238"/>
<path d="M12.6351 20.4919H32.3648C32.4814 20.4919 32.5931 20.4498 32.6756 20.3747C32.758 20.2996 32.8043 20.1977 32.8043 20.0916C32.8043 19.9854 32.758 19.8835 32.6756 19.8084C32.5931 19.7333 32.4814 19.6912 32.3648 19.6912H12.6351C12.5186 19.6912 12.4068 19.7333 12.3244 19.8084C12.242 19.8835 12.1957 19.9854 12.1957 20.0916C12.1957 20.1977 12.242 20.2996 12.3244 20.3747C12.4068 20.4498 12.5186 20.4919 12.6351 20.4919Z" fill="#263238"/>
<path d="M12.6351 23.2643H32.3648C32.4814 23.2643 32.5931 23.2221 32.6756 23.147C32.758 23.0719 32.8043 22.9701 32.8043 22.8639C32.8043 22.7577 32.758 22.6559 32.6756 22.5808C32.5931 22.5057 32.4814 22.4635 32.3648 22.4635H12.6351C12.5186 22.4635 12.4068 22.5057 12.3244 22.5808C12.242 22.6559 12.1957 22.7577 12.1957 22.8639C12.1957 22.9701 12.242 23.0719 12.3244 23.147C12.4068 23.2221 12.5186 23.2643 12.6351 23.2643Z" fill="#263238"/>
<path d="M12.6351 26.0366H32.3648C32.4814 26.0366 32.5931 25.9944 32.6756 25.9193C32.758 25.8443 32.8043 25.7424 32.8043 25.6362C32.8043 25.53 32.758 25.4282 32.6756 25.3531C32.5931 25.278 32.4814 25.2358 32.3648 25.2358H12.6351C12.5186 25.2358 12.4068 25.278 12.3244 25.3531C12.242 25.4282 12.1957 25.53 12.1957 25.6362C12.1957 25.7424 12.242 25.8443 12.3244 25.9193C12.4068 25.9944 12.5186 26.0366 12.6351 26.0366Z" fill="#263238"/>
<path d="M12.6351 28.8105H24.764C24.8806 28.8105 24.9924 28.7684 25.0748 28.6933C25.1572 28.6182 25.2035 28.5163 25.2035 28.4102C25.2035 28.304 25.1572 28.2021 25.0748 28.127C24.9924 28.052 24.8806 28.0098 24.764 28.0098H12.6351C12.5186 28.0098 12.4068 28.052 12.3244 28.127C12.242 28.2021 12.1957 28.304 12.1957 28.4102C12.1957 28.5163 12.242 28.6182 12.3244 28.6933C12.4068 28.7684 12.5186 28.8105 12.6351 28.8105Z" fill="#263238"/>
<path d="M12.6351 12.1719H18.7224C18.839 12.1719 18.9508 12.1297 19.0332 12.0547C19.1156 11.9796 19.1619 11.8777 19.1619 11.7715V6.22693C19.1619 6.12074 19.1156 6.0189 19.0332 5.94381C18.9508 5.86872 18.839 5.82654 18.7224 5.82654H12.6351C12.5186 5.82654 12.4068 5.86872 12.3244 5.94381C12.242 6.0189 12.1957 6.12074 12.1957 6.22693V11.7715C12.1957 11.8777 12.242 11.9796 12.3244 12.0547C12.4068 12.1297 12.5186 12.1719 12.6351 12.1719ZM17.2054 11.3711H14.1469V11.2558C14.1473 10.9544 14.279 10.6654 14.5129 10.4522C14.7469 10.2391 15.064 10.1191 15.3949 10.1187H15.9609C16.2918 10.1191 16.6089 10.2391 16.8429 10.4522C17.0769 10.6654 17.2085 10.9544 17.209 11.2558L17.2054 11.3711ZM14.9906 8.69654C14.9901 8.57483 15.0284 8.45561 15.1011 8.35347C15.1737 8.25132 15.2774 8.17068 15.3996 8.12139C15.5217 8.07211 15.657 8.05632 15.7888 8.07597C15.9207 8.09561 16.0433 8.14983 16.1419 8.23199C16.2404 8.31416 16.3106 8.42071 16.3437 8.53861C16.3769 8.65652 16.3716 8.78067 16.3285 8.89588C16.2854 9.01108 16.2064 9.11236 16.1012 9.18732C15.996 9.26228 15.869 9.30767 15.7359 9.31794H15.6199C15.4488 9.30474 15.2892 9.23363 15.1728 9.11862C15.0563 9.0036 14.9913 8.85303 14.9906 8.69654ZM13.0746 6.62732H18.2812V11.3711H18.0879V11.2558C18.0873 10.9011 17.98 10.5534 17.7776 10.2504C17.5752 9.94741 17.2855 9.70079 16.94 9.53736C17.1112 9.3247 17.2143 9.073 17.238 8.81017C17.2617 8.54735 17.2049 8.28369 17.0741 8.04846C16.9433 7.81323 16.7435 7.61563 16.4969 7.47759C16.2502 7.33955 15.9665 7.26648 15.677 7.26648C15.3876 7.26648 15.1038 7.33955 14.8572 7.47759C14.6106 7.61563 14.4108 7.81323 14.2799 8.04846C14.1491 8.28369 14.0924 8.54735 14.1161 8.81017C14.1397 9.073 14.2429 9.3247 14.414 9.53736C14.0685 9.70079 13.7788 9.94741 13.5765 10.2504C13.3741 10.5534 13.2668 10.9011 13.2662 11.2558V11.3711H13.0728L13.0746 6.62732Z" fill="#263238"/>
</svg>
